<?xml version="1.0" encoding="UTF-8" standalone="no"?>
<!-- Created with Inkscape ("http://www.inkscape.org/") -->
<svg xmlns="http://www.w3.org/2000/svg" viewBox="0 0 647.2 641.6"><style>.a{stroke-width:1pt;stroke:#000;}</style><path d="m676.6 393a296.6 296.6 0 1 1-593.1 0 296.6 296.6 0 1 1 593.1 0z" transform="translate(-55.208 -67.309)" style="fill:#fff;stroke-width:60;stroke:#e71818"/><path d="m303.4 377.5c-37.7 15.3-86.5 16.3-83.5-55-34.6-38.7-22.4-74.3 28.5-86.5 1-19.3 29.5-57 71.3-22.4-10.2-33.6 49.9-73.3 76.4-16.3 5.1-18.3 62.1-44.8 68.2 17.3 15.3-14.2 54-12.2 47.9 32.6 26.5-13.2 63.1 22.4 30.5 50.9 21.4 13.2 19.4 59.1-27.5 60.1-4.1 14.3-18.3 28.5-39.7 28.5-43.8-11.2-131.3-13.2-131.3-13.2" fill="#fed420"/><path d="m308.5 364.3c-4.1 0-8.1 0.8-11.7 2.4-3.6 1.5-6.8 3.7-9.5 6.4-2.7 2.7-5.6 9-6.4 12.8l-14.9 65.4c-10.2 0.8-18.3 9.3-18.3 19.8v57.5c0 8 4.7 14.9 11.5 18.1v15.9 22.8 3.3c4.2 6.3 11.3 10.4 19.3 10.4 8.8 0 16.5-5 20.4-12.3v-1.4-20.7-15.5c18.9 0.8 38.5 1.4 58.5 1.7v0c6.6 0.1 13 0.2 19.7 0.2h1.5 1.5c6.7 0 13.1-0.1 19.7-0.2v-0.1c20-0.3 39.6-0.8 58.5-1.7v15.5 20.8 1.4c3.9 7.3 11.6 12.3 20.4 12.3 8 0 15.2-4.1 19.3-10.3v-3.3-22.7-15.9c6.8-3.2 11.5-10 11.5-18.1v-57.5c0-10.5-8-19-18.3-19.8l-14.9-65.4c-0.8-3.8-3.7-10.1-6.4-12.8-2.7-2.7-5.9-4.9-9.5-6.4-3.6-1.5-7.5-2.3-11.6-2.3h-49.1-42.4-49.1zm46.6 17.7c5.6 0 13.3 0.1 23.6 0.3 42.6-0.8 35.7 0.6 54.2 0.6 4.7 0 9.9 0.9 14 2.1s8.3 3.1 11.4 5.3c3.1 2.2 7.5 5.8 8.7 10.9 0 0 6.1 20.3 6.6 27.4 0.2 3.2-1.2 5.1-1.6 5.8-0.8 1.4-2.1 2.7-3.7 3.5-2.2 1-2.6 1.1-5.5 1.4-2.1 0.3-5 0.4-7.2 0.4-9.5-0.7-40.8-2.1-76.6-2.7-36 0.7-70.1 2.5-79.6 3.2-9.1 0-16.4-6.6-14.8-14.4l6-24.6c1.1-5.1 5.6-8.7 8.7-10.9 3.1-2.2 7.4-4 11.4-5.2 4.1-1.2 9.3-2.1 14-2.1 14 0 13.3-0.9 30.6-0.9zm-74.5 82.8c9.2 0 16.7 7.5 16.7 16.8s-7.5 16.8-16.7 16.8c-9.2 0-16.7-7.5-16.7-16.8s7.5-16.8 16.7-16.8zm196.1 0c9.2 0 16.7 7.5 16.7 16.8s-7.5 16.8-16.7 16.8c-9.2 0-16.7-7.5-16.7-16.8s7.5-16.8 16.7-16.8zm-101.8 16c25.5 0 49.2 1.1 70.4 2.9v7.3h-133.1v-7.9c19.2-1.4 40.4-2.2 62.8-2.2zm-62.8 20.9h133.2v10.2h-133.1v-10.1zm0 21.1h133.2v6c-21.2 1.8-44.9 2.9-70.4 2.9-22.4 0-43.6-0.8-62.8-2.2v-6.7z" stroke-width="3pt"/><path d="m366.6 353.4c-17.8-11.2-14.9-12.5-19.5-20.2-4.6-7.6-4.6-17.8-15.8-24.4 4.6-2.5 19.2-1.6 25 0.4 5.6 2.6-4.1-3.6-7.1-13.8-3.1-10.2-2.5-22.2 1.5-27.3 1.7 5.7 5.6 14.8 12.2 19.3 6.6 4.6-2-6.1-2-15.8s3.1-17.8 3.1-20.9 3.8 9.8 7.3 11.4c2.1-0.1 0.9 0.3 2.9-5.8 2-6.1 4.9-7.6 4.9-22.4 2.5 7.2 8.6 15.7 7.5 27.4s-2.9 17-5.9 23c-4.1 4.1 14.6-10.6 17.2-19.6 2.4 3.2 3.7 22.4-3.5 30.8-0.7 4.1 14-2.7 18-6.7 0.8 6.5-0.2 22-13.9 33.2-4.9 3.8 11.2 1 13.7-2.5 2.5-3.6-3.5 32.3-33.6 34.3 1.7-2 6-5.7 6.5-9.5-3.7-0.2-5.8 0.9-8.5 0 2.5-1.5 9.4-10.4 9.1-12.8-3.2 2.1-4.6 2.5-7.2 2.3 0.8-2.8 5.7-9 3.6-19.2-1.3 1.6-4.2 4.2-4.4 3.7-0.9-2.5-2.6-5.7-4.2-7.2-3.8 5.9-6.2 18-5.9 24.8-2.5-2.1-3-2.4-6.1-2.7 3.3 4 4.4 11 4.2 14.6-0.1 2.1 0.8 6 0.9 5.8z" class="a"/><path d="m402.1 226.8l10.2-14.2 16.3 11.7-5.6 7.6-20.9-5.1z" class="a"/><path d="m345.6 217.7v4.6l7.1 7.6 10.7 1.5-0.5-13.7h-17.3z" class="a"/><path d="m420.9 284.3v7.1h12.2l0.5-6.6-12.7-0.5z" class="a"/><path d="m424.5 264.5l2 4.1 71.8-44.8-7.6-9.7-66.2 50.4z" class="a"/><path d="m486.1 254.3l-0.5 17.3 22.4-0.5 0.5-8.1-22.4-8.7z" class="a"/><path d="m522.7 276.7l-92.1 41.7 1.5 7.6 95.7-24.9s-11.7-2-9.7-4.1c2-2 5.1-19.3 4.6-20.4z" class="a"/><path d="m501.9 338.8l2.5 9.7-72.3 7.1v-6.1l69.7-10.7z" class="a"/><path d="m408.7 349.5l5.6-5.1 5.6 4.6-5.1 6.6-6.1-6.1z" class="a"/><path d="m229.6 350l67.7 7.1 4.1-3.6-58.5-15.8 2 5.6-15.3 6.6z" class="a"/><path d="m251.4 307.7h13.7v-7.1l54.5 38.2-3.6 5.6-64.6-36.6z" class="a"/><path d="m239.7 298.6l-23.9-24.9 12.7-10.7 17.8 29-6.6 6.6z" class="a"/><path d="m242.8 258.9l11.7-8.1 70.2 57-5.1 6.6-76.8-55.5z" class="a"/><path d="m271.8 218.2l17.3 8.7 1.5-8.1 32.6 64.6-5.1 2-46.3-67.2z" class="a"/><path d="m328.8 357.1l-5.6-3.6 6.6-4.6 19.9 0.5 4.1 3.6-5.1 3.6-19.8 0.5z" class="a"/></svg>
 
