<?xml version="1.0" encoding="UTF-8" standalone="no"?>
<svg xmlns="http://www.w3.org/2000/svg" viewBox="0 0 48 48"><style>.a{stop-opacity:0;}</style><defs><linearGradient><stop stop-color="#2e3436"/><stop offset="1" stop-color="#2e3436" class="a"/></linearGradient><linearGradient><stop stop-color="#fff"/><stop offset="1" stop-color="#fff" class="a"/></linearGradient><linearGradient><stop stop-color="#fff" stop-opacity="0.8"/><stop offset="1" stop-color="#fff" class="a"/></linearGradient><radialGradient cx="20.7" cy="46.6" r="12.2" xlink:href="#2" gradientUnits="userSpaceOnUse" gradientTransform="matrix(0.8204677,0,0,0.1341645,4.4416214,38.87484)"/><linearGradient y1="4.6" y2="44.2" xlink:href="#4" gradientUnits="userSpaceOnUse"/><linearGradient x1="18.4" y1="-12.9" x2="34.7" y2="29.7" xlink:href="#3" gradientUnits="userSpaceOnUse"/></defs><path d="m31.4 45.1c0 0.9-4.5 1.6-10 1.6-5.5 0-10-0.7-10-1.6 0-0.9 4.5-1.6 10-1.6 5.5 0 10 0.7 10 1.6l0 0z" style="fill:url(#5);opacity:0.8"/><path d="M37 2.9C36.4 2.8 35.7 3 35.3 3.6L19.3 28.6 10.7 20.7C9.9 20.2 8.9 20.4 8.4 21.2l-4.5 5c-0.5 0.8-0.3 1.8 0.5 2.3 0 0 15.7 14.9 15.7 14.9 0.2 0.1 0.4 0.2 0.6 0.2 0.7 0.1 1.4-0.1 1.7-0.7L44.1 9.2C44.6 8.5 44.3 7.4 43.6 6.9L37.7 3.1C37.5 3 37.2 2.9 37 2.9z" style="fill:#8bb300;stroke-linejoin:round;stroke:#445800"/><path d="m37 5.1c-0.2 0.1-0.4 0.3-0.7 0.8l-8.1 12.7-7.2 11.2c-0.1 0.1-0.1 0.2-0.2 0.3 0 0.1-0.1 0.2-0.2 0.3-0.1 0.2-0.3 0.4-0.7 0.5-0.3 0.1-0.5 0-0.6-0.1-0.2-0.1-0.3-0.3-0.7-0.5L10.6 22.1c-0.2-0.2-0.4-0.3-0.5-0.4-0.1-0.1-0.3-0.2-0.4-0.2-0.1 0-0.2 0-0.3 0.1C9.3 21.8 9.2 21.9 9 22l-3.5 3.8c-0.5 0.4-0.7 0.8-0.7 1.2 0 0.4 0.3 0.7 0.8 1.1 0 0 3.6 3.4 7.1 6.8 1.8 1.7 3.6 3.4 4.9 4.7 0.7 0.6 1.2 1.2 1.6 1.5 0.2 0.2 0.4 0.3 0.5 0.4 0.1 0 0.1 0.1 0.1 0.1 0 0 0 0 0 0 0 0 0 0 0 0 0.1 0.1 0.1 0.1 0.2 0.2 0.1 0.1 0.3 0.2 0.6 0.5 0.1 0.1 0.3 0.1 0.5 0.1 0.1-0.1 0.3-0.2 0.4-0.3 0.2-0.3 0.4-0.7 0.6-1L43 9C43.2 8.8 43.3 8.6 43.3 8.5 43.4 8.4 43.4 8.3 43.4 8.2 43.4 8.1 43.3 8 43.2 7.9 43.1 7.8 42.9 7.7 42.8 7.6c0 0 0 0 0 0L37.4 4.3C37.3 4.2 37.1 4.1 37 4.1 36.9 4 36.7 4 36.6 4z" style="fill:none;opacity:0.8;stroke-linejoin:round;stroke:url(#6)"/><path d="M36.6 3.4C36.3 3.4 36 3.6 35.8 3.9L24.9 20.8c4.5-1.5 9.1-2.8 13.7-3.9l5.1-8c0.4-0.6 0.2-1.3-0.4-1.6L37.4 3.5C37.3 3.4 37.1 3.4 36.9 3.4 36.8 3.4 36.7 3.4 36.6 3.4zM9.5 21c-0.3 0.1-0.5 0.2-0.7 0.5C8.8 21.5 8.8 21.5 8.8 21.5l-4.4 4.9c0 0 0 0 0 0-0.3 0.6-0.2 1.2 0.4 1.6 0 0 0 0 0.1 0 0 0 0.5 0.5 0.5 0.5 3-1.4 6-2.6 9.1-3.8l-4-3.6c0 0 0 0 0 0-0.3-0.2-0.6-0.2-0.9-0.2z" style="fill:url(#7);opacity:0.8"/></svg>
 
