<svg xmlns="http://www.w3.org/2000/svg" width="25" height="25" viewBox="0 0 450 450"><title>  Epicenter map symbol &#x2F; sign</title><path d="m271 256a15 15 0 0 1-15 15 15 15 0 0 1-15-15 15 15 0 0 1 15-15 15 15 0 0 1 15 15z" style="fill:#f00;stroke-width:8"/><path d="m256 139.3c-64.4 0-116.7 52.3-116.7 116.7 0 64.4 52.3 116.7 116.7 116.7 64.4 0 116.7-52.3 116.7-116.7 0-64.4-52.3-116.7-116.7-116.7zm0 3c62.8 0 113.7 50.9 113.7 113.7 0 62.8-50.9 113.7-113.7 113.7-62.8 0-113.7-50.9-113.7-113.7 0-62.8 50.9-113.7 113.7-113.7z" style="baseline-shift:baseline;block-progression:tb;color-interpolation-filters:linearRGB;color-interpolation:sRGB;color-rendering:auto;direction:ltr;fill-opacity:0.55;fill:#f00;font-family:sans-serif;font-size:medium;image-rendering:auto;isolation:auto;letter-spacing:normal;line-height:normal;mix-blend-mode:normal;shape-rendering:auto;solid-color:#000;solid-opacity:1;stroke-width:3;text-align:start;text-decoration-color:#000;text-decoration-line:none;text-decoration-style:solid;text-decoration:none;text-indent:0;text-rendering:auto;text-transform:none;white-space:normal;word-spacing:normal"/><path d="m256 214.3c-23 0-41.7 18.7-41.7 41.7 0 23 18.7 41.7 41.7 41.7 23 0 41.7-18.7 41.7-41.7 0-23-18.7-41.7-41.7-41.7zm0 9c18.1 0 32.7 14.6 32.7 32.7 0 18.1-14.6 32.7-32.7 32.7-18.1 0-32.7-14.6-32.7-32.7 0-18.1 14.6-32.7 32.7-32.7z" style="baseline-shift:baseline;block-progression:tb;color-interpolation-filters:linearRGB;color-interpolation:sRGB;color-rendering:auto;direction:ltr;fill:#f00;font-family:sans-serif;font-size:medium;image-rendering:auto;isolation:auto;letter-spacing:normal;line-height:normal;mix-blend-mode:normal;shape-rendering:auto;solid-color:#000;solid-opacity:1;stroke-width:9;text-align:start;text-decoration-color:#000;text-decoration-line:none;text-decoration-style:solid;text-decoration:none;text-indent:0;text-rendering:auto;text-transform:none;white-space:normal;word-spacing:normal"/><path d="m256 189.7c-36.6 0-66.3 29.7-66.3 66.3 0 36.6 29.7 66.3 66.3 66.3 36.6 0 66.3-29.7 66.3-66.3 0-36.6-29.7-66.3-66.3-66.3zm0 6c33.4 0 60.3 27 60.3 60.3 0 33.4-27 60.3-60.3 60.3-33.4 0-60.3-27-60.3-60.3 0-33.4 27-60.3 60.3-60.3z" style="baseline-shift:baseline;block-progression:tb;color-interpolation-filters:linearRGB;color-interpolation:sRGB;color-rendering:auto;direction:ltr;fill:#f00;font-family:sans-serif;font-size:medium;image-rendering:auto;isolation:auto;letter-spacing:normal;line-height:normal;mix-blend-mode:normal;shape-rendering:auto;solid-color:#000;solid-opacity:1;stroke-width:6;text-align:start;text-decoration-color:#000;text-decoration-line:none;text-decoration-style:solid;text-decoration:none;text-indent:0;text-rendering:auto;text-transform:none;white-space:normal;word-spacing:normal"/><path d="m256 166.2c-49.6 0-89.8 40.2-89.8 89.8 0 49.6 40.2 89.8 89.8 89.8 49.6 0 89.8-40.2 89.8-89.8 0-49.6-40.2-89.8-89.8-89.8zm0 4c47.4 0 85.8 38.4 85.8 85.8 0 47.4-38.4 85.8-85.8 85.8-47.4 0-85.8-38.4-85.8-85.8 0-47.4 38.4-85.8 85.8-85.8z" style="baseline-shift:baseline;block-progression:tb;color-interpolation-filters:linearRGB;color-interpolation:sRGB;color-rendering:auto;direction:ltr;fill:#f00;font-family:sans-serif;font-size:medium;image-rendering:auto;isolation:auto;letter-spacing:normal;line-height:normal;mix-blend-mode:normal;shape-rendering:auto;solid-color:#000;solid-opacity:1;stroke-width:4;text-align:start;text-decoration-color:#000;text-decoration-line:none;text-decoration-style:solid;text-decoration:none;text-indent:0;text-rendering:auto;text-transform:none;white-space:normal;word-spacing:normal"/><path d="m256 109.6c-80.9 0-146.4 65.6-146.4 146.4 0 80.9 65.6 146.4 146.4 146.4 80.9 0 146.4-65.6 146.4-146.4 0-80.9-65.6-146.4-146.4-146.4zm0 2c79.8 0 144.4 64.6 144.4 144.4 0 79.8-64.6 144.4-144.4 144.4-79.8 0-144.4-64.6-144.4-144.4 0-79.8 64.6-144.4 144.4-144.4z" style="baseline-shift:baseline;block-progression:tb;color-interpolation-filters:linearRGB;color-interpolation:sRGB;color-rendering:auto;direction:ltr;fill-opacity:0.36;fill:#f00;font-family:sans-serif;font-size:medium;image-rendering:auto;isolation:auto;letter-spacing:normal;line-height:normal;mix-blend-mode:normal;shape-rendering:auto;solid-color:#000;solid-opacity:1;stroke-width:2;text-align:start;text-decoration-color:#000;text-decoration-line:none;text-decoration-style:solid;text-decoration:none;text-indent:0;text-rendering:auto;text-transform:none;white-space:normal;word-spacing:normal"/></svg>