<?xml version="1.0"?>
<svg xmlns="http://www.w3.org/2000/svg" viewBox="0 0 177.5 184.7"><style>.a{stop-opacity:0;}.b{fill:#fff;}</style><defs><radialGradient gradientUnits="userSpaceOnUse" cy="191.8" cx="191.9" gradientTransform="matrix(-.10659 1.7517 -1.2059 -.073376 459.56 -121.71)" r="109.2"><stop stop-color="red" offset="0"/><stop stop-color="red" offset="1" class="a"/></radialGradient><linearGradient x1="355.1" gradientUnits="userSpaceOnUse" y1="230.8" gradientTransform="matrix(.55286 0 0 .55286 -8.6794 -52.478)" x2="324.8" y2="593.9"><stop stop-color="red" offset="0" stop-opacity="0.4"/><stop stop-color="red" offset="1" class="a"/></linearGradient></defs><g transform="matrix(0.4982 0 0 0.4982 -4.7123 1.1993)"><path d="m211.9 59c-10-14.4-34.1-19.1-41.9-8.4-41 55.8-109.4 215.4-105.6 215.8-2.9 8.3-9.4 26.1-3.6 36.5 18.6 21.2 33.4 29 61.1 21.4l192-49.5c18.2-6.8 19.2-27.6 11.3-40.2-29.8-48.1-77.1-123.5-113.4-175.6z" stroke="#000"/><path d="m193.9 80.3c-37.3 67.3-64 134.5-92.5 201.8-2.6 5.2-3.3 13.8-0.8 17.3 2.5 3.5 11.5 4.2 19.7 2.5l181.8-43.5c6.2-1.5 12.6-3.6 14.1-7.2 1.5-3.6-2.2-9.6-5-14.4-30.8-50.1-62.5-101.1-98.9-156.7-3.1-4.8-6.7-7.8-10-7.7s-6.3 3.7-8.4 7.9z" fill="url(#radialGradient2136)"/><g fill="maroon"><path d="m220.8 118.5c-8.1 3-18.8 4.2-32.5 3.5 9 31.3 14 65.3 15.7 96.6 7 0.9 13 0 18.1-2.8 2.3-31.3 3.8-64.2-1.3-97.3z"/><path d="m216.9 229.9c-7-1.1-13.8 4.3-15.1 12.2-1.3 7.8 3.4 15.1 10.4 16.2 7 1.1 13.7-4.3 15-12.1 1.3-7.8-3.3-15.1-10.3-16.2z"/></g><path d="m222.8 120.5c-8.1 3-18.8 4.2-32.5 3.5 9 31.3 14 65.3 15.7 96.6 7 0.9 13 0 18.1-2.8 2.3-31.3 3.8-64.2-1.3-97.3z" class="b"/><path d="m218.9 231.9c-7-1.1-13.8 4.3-15.1 12.2-1.3 7.8 3.4 15.1 10.4 16.2 7 1.1 13.7-4.3 15-12.1 1.3-7.8-3.3-15.1-10.3-16.2z" class="b"/><path d="m197.1 92.6c-31.9 61.9-57.7 123.8-84.2 185.7-2.1 4.3-5.5 11.2-3.4 14 2.1 2.9 3.9 2.2 10.7 0.8l57.3-14.4c-7.2-53.3-3.9-131 55.4-152.6l-20.5-33.7c-2.5-4-5.6-6.5-8.2-6.3s-5.2 3.1-7 6.6z" fill="url(#linearGradient2138)"/></g></svg>
 


 
 