<?xml version="1.0" encoding="UTF-8" standalone="no"?>
<svg xmlns="http://www.w3.org/2000/svg" viewBox="0 0 75.1 75.9"><style>.a{stop-color:#E20E1A;}.b{stop-color:#A31D18;}.c{stop-color:#72160E;}</style><linearGradient y2="72" gradientUnits="userSpaceOnUse" x2="37.1" y1="5" x1="37.1"><stop offset="0" class="a"/><stop offset=".6727" class="b"/><stop offset="1" class="c"/></linearGradient><path d="m37.1 72c-18.5 0-33.5-15-33.5-33.5 0-18.5 15-33.5 33.5-33.5 18.5 0 33.5 15 33.5 33.5 0 18.5-15 33.5-33.5 33.5z" fill="url(#SVGID_1_)"/><radialGradient gradientUnits="userSpaceOnUse" cy="14.7" cx="768.5" gradientTransform="matrix(-1 0 0 1 818.96 0)" r="54.5"><stop offset=".4563" stop-color="#B2AFB3"/><stop offset=".6995" stop-color="#BDB9BD"/><stop offset=".9939" stop-color="#D0CBCE"/></radialGradient><path d="m9.9 38.5c0 15 12.2 27.2 27.2 27.2 15 0 27.2-12.2 27.2-27.2 0-15-12.2-27.2-27.2-27.2-15 0-27.2 12.2-27.2 27.2z" fill="url(#SVGID_2_)"/><radialGradient gradientUnits="userSpaceOnUse" cy="-2" cx="760.4" gradientTransform="matrix(-1 0 0 1 818.96 0)" r="55.5"><stop offset="0" stop-color="#FFF"/><stop offset=".1982" stop-color="#F9F9F9"/><stop offset=".4739" stop-color="#E9E8E7"/><stop offset=".7936" stop-color="#CECCCB"/><stop offset="1" stop-color="#BAB8B6"/></radialGradient><path d="m17.3 20.3c5-5.5 12.2-9 20.2-9 15 0 27.2 12.2 27.2 27.2 0 0.8 0 1.6-0.1 2.3-18.1 4.2-37.5-3.7-47.3-20.5z" fill="url(#SVGID_3_)"/><radialGradient gradientUnits="userSpaceOnUse" cy="38.5" cx="779.9" gradientTransform="matrix(-1 0 0 1 818.96 0)" r="27.9"><stop offset=".9246" stop-color="#ADB3BD"/><stop offset=".9705" stop-color="#868684"/><stop offset=".9935" stop-color="#575755"/></radialGradient><path d="m9.2 38.5c0-15.4 12.5-27.9 27.9-27.9 15.4 0 27.9 12.5 27.9 27.9s-12.5 27.9-27.9 27.9c-15.4 0-27.9-12.5-27.9-27.9zm1.5 0c0 14.6 11.8 26.4 26.4 26.4 14.6 0 26.4-11.8 26.4-26.4 0-14.6-11.8-26.4-26.4-26.4-14.6 0-26.4 11.8-26.4 26.4z" fill="url(#SVGID_4_)"/><g fill="#EAEAEA"><circle cy="52" cx="37.1" r="3.5"/><path d="m35.1 44.3c0 1.1 0.9 2 2 2 1.1 0 2-0.9 2-2 0 0 0 0 0 0 0-0.1 1.5-17.2 1.5-17.3 0-1.9-1.6-3.5-3.5-3.5s-3.5 1.6-3.5 3.5c0 0.2 1.5 17.3 1.5 17.3 0 0 0 0 0 0z"/></g><linearGradient y2="65.3" gradientUnits="userSpaceOnUse" x2="37.1" y1="10.9" x1="37.1"><stop offset="0" class="a"/><stop offset=".6727" class="b"/><stop offset="1" class="c"/></linearGradient><circle cy="51" cx="37.1" r="3.5" fill="url(#SVGID_5_)"/><linearGradient y2="65.3" gradientUnits="userSpaceOnUse" x2="37.1" y1="10.9" x1="37.1"><stop offset="0" class="a"/><stop offset=".6727" class="b"/><stop offset="1" class="c"/></linearGradient><path d="m35.1 43.3c0 1.1 0.9 2 2 2 1.1 0 2-0.9 2-2 0 0 0 0 0 0 0-0.1 1.5-17.2 1.5-17.3 0-1.9-1.6-3.5-3.5-3.5s-3.5 1.6-3.5 3.5c0 0.2 1.5 17.3 1.5 17.3 0 0 0 0 0 0z" fill="url(#SVGID_6_)"/><linearGradient y2="-294.1" gradientUnits="userSpaceOnUse" x2="-257.1" gradientTransform="matrix(0 166 166 0 48857 42590)" y1="-294.1" x1="-257.5"><stop offset="0" stop-color="#EA545E"/><stop offset=".6727" stop-color="#BE5F5D"/><stop offset="1" stop-color="#9E5D57"/></linearGradient><path d="m37.1 22.4c-1.9 0-3.5 1.6-3.5 3.5 0 0.1 0.5 6 1 10.9 1.6 0.8 3.2 1.6 4.9 2.2 0.5-5.1 1.2-13 1.2-13.1 0-1.9-1.6-3.5-3.5-3.5z" fill="url(#SVGID_7_)"/></svg>
 
 