<?xml version="1.0" encoding="UTF-8" standalone="no"?>
<!-- Created with Inkscape (http://www.inkscape.org/) -->
<svg xmlns="http://www.w3.org/2000/svg" viewBox="0 0 500 500"><style>.a{stop-color:#dc0000;}.b{stop-color:#f90;}</style><defs><linearGradient y2="-308" gradientUnits="userSpaceOnUse" x2="-514.1" gradientTransform="matrix(.36157 0 0 .35266 408.93 279.07)" y1="-613" x1="-464.5"><stop offset="0" stop-color="#fff"/><stop offset="1" style="stop-color:#fff;stop-opacity:0"/></linearGradient><radialGradient gradientUnits="userSpaceOnUse" cy="151.4" cx="-571.4" gradientTransform="matrix(-.65382 -.38117 .44202 -.55853 -243.34 198.59)" r="186.5"><stop offset="0" class="a"/><stop offset="1" class="b"/></radialGradient><radialGradient gradientUnits="userSpaceOnUse" cy="-102.2" cx="-302.9" gradientTransform="matrix(-.52617 -.32169 .42663 -.51405 189.59 92.988)" r="319.2"><stop offset="0" class="a"/><stop offset="1" class="b"/></radialGradient><filter width="1.6" y="-0.1" x="-0.3" height="1.3" color-interpolation-filters="sRGB"><feGaussianBlur stdDeviation="43.927963"/></filter><filter width="1.3" y="-0.1" x="-0.2" height="1.2" color-interpolation-filters="sRGB"><feGaussianBlur stdDeviation="43.927963"/></filter></defs><path d="m-385.6 460.9s337.1-223.9 320-414.3c-12.9-143.8-161.1-286.2-262.9-388.6-102.3-102.9-54.3-394.3-54.3-394.3s-301 246.9-311.4 405.7c-11.8 180.4 276 278.4 328.6 451.4 33.5 110.4-20 340-20 340z" style="fill:#f60;filter:url(#filter5101);stroke-width:1px;stroke:#000"/><path d="m-465.6 495.2s-289-187.9-325.7-288.6c-53.9-147.8 54.3-431.4 54.3-431.4s259 265.8 288.6 420c20.9 108.9-17.1 300-17.1 300z" style="fill:#dc0000;filter:url(#filter5097);stroke-width:1px;stroke:#000"/><path d="m278.9 429.6s135.7-77.4 128.8-143.1c-5.2-49.7-64.8-98.9-105.8-134.3-41.2-35.5-31.1-134.3-31.1-134.3s-105.1 61.6-116.2 138.2c-9 62 111.1 96.2 132.3 156 13.5 38.1-8.1 117.5-8.1 117.5z" style="fill:url(#radialGradient5175);stroke-width:3;stroke:#f67124"/><path d="m246.7 441.4s-116.3-64.9-131.1-99.7c-21.7-51.1 21.9-149.1 21.9-149.1s104.3 91.9 116.2 145.1c8.4 37.6-6.9 103.7-6.9 103.7z" style="fill:url(#radialGradient5165);stroke-width:3;stroke:#f6500d"/><path d="m275.8 434.4s118.7-76.9 112.7-142.3c-4.5-49.4-71-94.7-105.4-133.5-39.8-45-18.8-134.3-18.8-134.3s-102.6 94.9-98.2 137.9c4.1 41.1 105.2 96 116.8 115.9 20.4 35.1-7 156.3-7 156.3z" style="fill:url(#linearGradient5189);opacity:0.5"/></svg>