<?xml version="1.0" encoding="UTF-8" standalone="no"?>
<!-- Generator: Adobe Illustrator 10, SVG Export Plug-In . SVG Version: 3.0.0 Build 76)  -->
<svg xmlns="http://www.w3.org/2000/svg" viewBox="0 0 550 550"><path d="m465.7 152.6a204.8 204.8 0 1 1-409.5 0 204.8 204.8 0 1 1 409.5 0z" fill="#f9e400"/><path d="m209.9 186.9c4.3-1.5 23 2.1 26.5 4.8-0.6 25.2 13.6 51.9 37.9 63.8 0.4 4.2-5.5 22.7-8.9 26.1-34.3-14.5-60.2-58.3-55.5-94.7z"/><path d="m347.8 281.3c-3.5-3-9.7-20.9-9.1-25.4 22.1-12.1 38.2-37.7 36.3-64.7 3.4-2.5 22.4-6.6 27.1-5.3 4.6 36.9-20.4 81.3-54.3 95.4z"/><path d="m361 115.3c-0.9 4.5-13.3 18.8-17.4 20.6-21.5-13.1-51.7-14.2-74.2 0.9-3.8-1.7-16.9-16.1-18.1-20.8 29.7-22.5 80.6-23 109.7-0.7z"/><path d="m279 215.3 10.8-7c13.3 12.8 27.5 7.5 32.8 0l11.8 6.8c-17.7 40.3-1.7 72.3 23.5 92.5s76 16 98.3-13.7l5.8 3.8c-5 15.3-48.5 44.5-85.5 43.3s-59.7-12.5-69.2-23.2c-11.7 10.8-40.5 24.5-69.5 24.5s-61.2-12-86.5-43l7-4.5c38.5 39.8 80.3 25 100.3 10.8s39.8-54.2 20.8-90z"/><path d="m338.2 208.1-11.4-5.8c4.4-17.9-7.3-27.6-16.4-28.4l0-13.6c43.7-4.8 63.4-34.6 68.4-66.6s-24.1-73.8-61-78.2l0.4-6.9c15.7-3.3 62.8 19.8 80.2 52.4s19.1 58 14.5 71.6c15.2 4.8 41.5 22.8 56 47.9 14.5 25.1 20.2 59 6 96.4l-7.4-3.8c15.2-53.2-18.5-82-40.8-92.2s-66.9-7.3-88.3 27z"/><path d="m303.4 160.4 0.7 12.8c-17.7 5.1-20.2 20.1-16.4 28.4l-11.7 6.8c-26-35.5-61.7-37.6-91.9-25.9-30.2 11.7-51.9 57.8-37.2 92l-6.1 3.1c-10.7-12-14.3-64.3 5.3-95.7 19.6-31.4 40.7-45.5 54.8-48.3-3.4-15.6-1-47.3 13.5-72.4 14.5-25.1 41-47 80.5-53.4l0.4 8.3c-53.7 13.5-61.8 57-59.4 81.4 2.3 24.4 27.1 61.5 67.6 63z"/></svg>
 
