<?xml version="1.0" encoding="UTF-8" standalone="no"?>
<!-- Generator: Adobe Illustrator 10, SVG Export Plug-In . SVG Version: 3.0.0 Build 76)  -->

<svg xmlns="http://www.w3.org/2000/svg" viewBox="0 0 800 800"><g style="stroke-linejoin:round;stroke:#000"><path d="m773.8 723.6h-744.1l186-322.2 186-322.2 186 322.2 186 322.2z" style="fill:#ff0;stroke-width:50"/><path d="m437.2 301.4l-0.3 4c106.7 33.3 66.1 155.4-14.6 155.1l-0.5 11c16.1 9.4 23 22.7 22.4 39.1l9.8 5.1c40.1-70.1 166.1-44.2 141.6 64.9l3.7 1.8c19.2-61.4-1.5-121.3-65-149.4h0.2c7.3-75.8-42.3-120.3-97.2-131.5zm-70.4 0.1c-62.8 14.1-104.3 62-96.9 131.1l-0.1-0.1c-69.3 31.6-83 96.9-65.3 149.9l3.7-1.7c-24.5-109 101.5-135 141.6-64.9l9.8-5.1c0.7-18.7 4.3-26 22.6-39l-0.4-11c-80.7 0.4-121.3-121.7-14.6-155.1l-0.3-4.1zm35.7 103.3c-22.4 0.1-44.6 7.6-64.1 22 4.2 7 9 13.9 16 20.2 29.4-19.6 61.1-23 96.2-0.4 7.2-5.5 12.8-12.1 17.1-19.8-20.2-14.9-42.8-22.1-65.2-22zm-104.7 87.3c-6.8 49.9 18.1 93 62.1 113.4 4.2-7 7.8-14.5 10-23.7-31.4-16.4-49.5-42.5-46.5-84.2-8.3-3.7-16.8-5.4-25.6-5.5zm208.2 4.7c-8.1 0-16.5 0.7-25.5 3.6 2.1 35.3-11.1 64.3-48.4 83.2 1.1 9 4 17.2 8.4 24.8 46.2-19.8 70.5-63.3 65.4-111.5zm-126.5 48.4l-9.3 5.9c40.7 69.8-44.8 165.9-127 90.2l-3.3 2.3c43.6 47.4 105.8 59.4 161.9 18.4l-0.1 0.1c62 44.2 125.4 23.5 162.5-18.4l-3.3-2.3c-82.2 75.7-167.6-20.4-127-90.1l-9.3-5.9c-15.9 9.1-29.5 8.6-45.1-0.1z" stroke-width="2"/></g></svg>