<?xml version="1.0" encoding="UTF-8" standalone="no"?>
<!-- Created with Inkscape (http://www.inkscape.org/) -->
<svg xmlns="http://www.w3.org/2000/svg" viewBox="0 0 450 800"><style>.a{fill:#b7c7de;}.b{fill:#69717c;}.c{fill:#77808f;}.d{fill:#6a727d;}.e{fill:#69717a;}.f{fill:#667079;}.g{fill:#fff;}</style><defs><filter color-interpolation-filters="sRGB"><feGaussianBlur stdDeviation="10.15612"/></filter></defs><path d="m153.9 464.8c-1.8-8-11.6-4.7 3-36.1 55.2-55.5 301.7-67.6 334-20.6 14.1 13.7 12.8 28.5-3 44.2 16.4 15.4 25.2 46.9-8.2 63.4 15.5 19.5 17 34.7-11.2 40.5-2.1 33.3-2.6 50.8-36.6 56 6.1 33.6-14.4 46.1-23.9 51.6 9.2 14.8 29.9 13.7-0.7 44.9 35.5 7.5 48.5 24.8 23.9 44.9 15.9 5.4 36 20.5 20.9 42.7 27.9 17 16.6 32.4-3.7 36.8-0.4 4.8 1.1 11.4-3 12.5 8.8 18.5-17 28.2-27.6 28.7l-3.7 5.9c-11.3 30.7-16.2 23.4-23.9 33.2-9.2 13.6-1.6 19 0 27.3-9.4-5.2-22-3.8-20.2-33.2-8.7-7.8-20.2-14.5 9.7-37.6-5.6-17.7 14-24 33.6-30.2-14.3-12.2-12.7-27.3-5.2-43.5-20.2-11.4-46.9-0.8-45.6-42-2.8-12.8-65.2 8.4-69.5-68.5-12.3 3-58-0.6-32.1-39-18.7-14.9-53.4-5.2-47.1-58.9-8.3-7.8-40.4 15.4-14.9-36.1 0.4-5.8-58.5 10.2-17.9-53.8-25.4-1.3-50.2-3-26.9-33.2z" style="fill:#020203;filter:url(#filter3891)"/><path d="m207 555.9c100.5-61.1 196.5-36.8 211.4-28.6-78.2-4-156.3 6.7-222.1 58.6 1.1-8.7 1.7-16.9 10.7-30z" class="a"/><path d="m163.5 471.6c-1.8-7.7-11.1-4.6 2.9-35 52.8-53.8 288.4-65.5 319.3-20 13.4 13.3 12.3 27.6-2.9 42.9 15.7 14.9 24.1 45.5-7.9 61.4 14.8 18.9 16.3 33.6-10.7 39.3-2 32.2-2.5 49.3-35 54.3 5.8 32.6-13.8 44.7-22.9 50 8.8 14.4 28.6 13.3-0.7 43.6 34 7.3 46.3 24.1 22.9 43.6 15.2 5.2 34.4 19.9 20 41.4 26.7 16.4 15.9 31.4-3.6 35.7-0.4 4.6 1 11-2.9 12.1 8.4 17.9-16.2 27.4-26.4 27.9l-3.6 5.7c-10.8 29.7-15.4 22.7-22.9 32.1-8.8 13.2-1.5 18.4 0 26.4-9-5.1-21-3.7-19.3-32.1-8.3-7.6-19.3-14.1 9.3-36.4-5.4-17.2 13.4-23.2 32.1-29.3-13.7-11.9-12.1-26.5-5-42.1-19.4-11.1-44.8-0.8-43.6-40.7-2.7-12.4-62.3 8.2-66.4-66.4-11.8 2.9-55.4-0.6-30.7-37.9-17.9-14.5-51-5.1-45-57.1-7.9-7.5-38.6 15-14.3-35 0.4-5.7-55.9 9.8-17.1-52.1-24.3-1.3-48-2.9-25.7-32.1z" fill="#929eb4"/><path d="m362 750.9c19.3-15.1 39.9-28.5 71.4-28.6-28.6-5.1-53.6 5.4-76.4 25z" fill="#6a737a"/><path d="m314.2 732.7c41.3-58 92.5-50 92.5-50s-50.6-11.8-101.8 39.6c3.1 3.1 6.2 5.5 9.3 10.4z" class="b"/><path d="m297 684.9c51.3-49.6 99.3-44.6 99.3-44.6-83.9-16.6-133.7 37.7-133.6 37.9 2.9 0.4 12.4 12.8 34.3 6.8z" class="c"/><path d="m249.2 639.5c27.5-28.4 62-37.3 111.4-39.3-27.1-9.7-125.7 15.4-133.2 28.9 5.8 3.9 9.7 8.3 21.8 10.4z" class="c"/><path d="m163.5 471.6c48.8-41.5 123.9-56.4 210.7-47.9-32.4-12.2-112.2-22.7-215 28.6-1.3 9.7 0.8 15.3 4.3 19.3z" fill="#b7c8df"/><path d="m175.6 539.5c68-68.9 235.7-61.4 235.7-61.4-9.8 4.4-67.8-37.1-223.6 27.9-4.5 10.7-11.9 18.6-12.1 33.6z" fill="#bbd5f0"/><path d="m163.8 489.9c106.6-98.2 319.6-38.9 318.6-12.8-85.2-54.4-292.7-20.8-318.6 12.9z" class="a"/><path d="m193.1 553.1c18.1-24.1 50.1-26.6 76.1-35-25.9 2-49.4-5.1-87.9 31.8 5 2.7 7.7 3.4 11.8 3.2z" fill="#767f8e"/><path d="m230.6 406.6c-12.4 13.2-4.6 15.1-0.7 19.3-3.1 5.7-17.8 11.4 3.6 17.1-17.8 15.8-17.9 23.7-1.4 24.3-0.7 5.5-14.5 17 7.1 12.1-7.8 11.7-13.4 23.3 5 35-1.3 6.6-13.5 16.6 13.6 14.3-10.1 15.5-27.2 33.9 12.1 29.3-24.8 51.4-1.6 45.8 11.4 52.1-2.9 10-8.3 21.6 16.4 15-4.4 9-23.3 17.1 0 27.9-1.6 10.9-9.7 26.3 21.4 13.6-9 15.5-15.5 29.7 3.6 30-1.4 18.6 5.7 27.6 21.4 27.1 3.8 3.7 3.1 9.9 19.3 6.4 2.3 3.5-6.8 8.2 10.7 10 1.3 8.6-11 19.8 7.1 25 0.8 6.7-3.3 17.3 13.6 11.4 0.6 9.7 10.1 8.6 20 7.1-7.6 18.6-6.7 33.3 2.9 44.3l-7.1 12.1c-8.3 0.8-16.7 1.4-15.7 11.4-14.2 3-13.2 10.6-8.6 19.3-8.7 3.4-20.1 4.5-14.3 20.7l2.1 26.4c2.3-8.6 0.5-24.1 7.9-24.3-2.5-20 9-14.7 15-19.3-0.6-6.8-6.2-14.7 9.3-17.9 0.1-12.7 8.3-9 13.6-11.4 10.1-4.7 11.1-13.2 7.9-23.6-10.9-5.8-3.5-20.6 0-33.6-6.1-7.7 4.5-23.1-23.6-20.7-1.2-6-6.7-10.6-19.3-12.9 18-14.1 5.9-22.9-7.9-31.4-6.9-14.3-13.8-18.3-20.7-13.6 5.4-10.7 7.9-21.2-18.6-30 9-10.5 22.7-21-5-31.4 2.7-20.3 3.2-38.2-12.9-37.9 7.7-32.2-11-14.5-18.6-17.9 8.2-7.5 5.3-13.7-3.6-19.3 20.4-10.4 82.5-21.4-1.4-30 32.7-12.5 40.8-25.6-10-40 28.2-12.1 63.1-24 12.1-37.9 30.9-8.2 24.6-17.7-1.4-27.9 27.8-8.9 21.3-21.7 15.7-34.3l12.1-11.4c-35.3 1.2-66.7 6.2-94.3 15z" fill="#c3d5e9"/><path d="m452 572.4c-116-44.9-240.4 14.3-230.7 17.9-0.9 7-1.4 12.6-1.4 21.4 57.8-32.5 119.1-60.2 232.1-39.3z" fill="#bcd6f1"/><path d="m422 391.6c26.1 10.6 32.3 57.7 2.9 50 74 47.8 0 70 0 70 40.6 22.2 50.7 39.7 5.7 48.6 17.9 37.1-11.3 44.2-33.6 55.7 5 17.9 7 35.9-23.6 55.7 24 4 40.4 11 13.6 35.7 17.9 8.8 45.9 12.1 27.9 40.7 19.1 9.8 30.6 21.9 25 39.3 11.3 15.8 19.6 31-2.9 39.3 3.8 23.5-8 32.6-25 37.1-4.5 11.4-6.5 25.4-20 27.9-17.7 9-13.3 15.7-12.9 22.9l8.1 17c-4.1-16.5-1.6-26.3 9.8-31.3 8.2-6.5 12.1-21.6 17.9-32.9-1.9-1.6 27.5 1.8 27.9-25 1.2-4.8-0.6-14 3.6-14.3 21.1-6.3 26.4-19.8 2.2-35 13.7-16.9-4.6-39.4-20.2-41.4 31.6-29.1-9.6-40.8-22.8-42.9 13.9-14.4 19.3-23 0.5-44.4 19.6-11.7 25.8-28.7 23.1-49.2 19.9-4.2 35.1-11.6 34.9-54.3 25.4-8.3 22.2-22.9 10.8-39.3 22.4-15.9 26.4-36.2 7.8-62.9 35-42.6-35-66.1-60.6-67.1z" class="c"/><path d="m482.7 458.8c-28.5-12.6-57.4-25.1-107.1-29.3 32.2 2.1 53.8-8.5 115.7 15.7-3.6 9.8-5.8 9.7-8.6 13.6z" class="d"/><path d="m474.9 521.6c-96.2-45.1-147.1-28.8-197.9-15 129.7-20.7 164.7 11.9 207.9 40 0-7.6-1.5-15.5-10-25z" class="e"/><path d="m464.9 560.2c-53.9-29.4-86.9-17.1-125.7-16.4 48.9 2.2 104.2 5.1 124.6 24.6z" class="f"/><path d="m459.9 595.9c-90.3-38-167.6-3.6-171.4 1.4 95.4-17.3 130.2-3.1 159.3 11.4 6.8-2.2 8.9-7.9 12.1-12.9z" fill="#616b77"/><path d="m430.6 616.6c-54.7-19.4-104.8-6.1-152.9 22.9 45.1-18 90.2-35.4 151.1-4.3 2.9-4.6 1.4-12.2 1.8-18.6z" fill="#68727b"/><path d="m421.3 651.6c-52.2-4.3-77.1 13.5-99.3 33.6 28-8.1 55-25.4 88.2-16.1-11.2-5.1 6.2-11.6 11.1-17.5z" class="d"/><path d="m415.6 695.9c-58.4 1.3-60.7 21.2-72.9 37.9 18.9-12.1 31.2-29.4 64.3-28.2 5.2-3.2 5.9-6.4 8.6-9.6z" class="b"/><path d="m441.7 734.9c-33.3 1.5-48.3 19.1-64.6 33.2 17.7-6.7 32.4-22.3 51.8-17.1z" fill="#69727b"/><path d="m406 793.1c13.3-2.3 15.3-13.9 39.6 0-6.4-9.1-11.7-19.2-45-4.3z" class="f"/><path d="m454.2 798.8c-12.2-1.2-20.8 3.9-29.3 9.3 18.3-3.8 31.4-2.9 39.3 2.9-1.7-7-4.5-11.8-10-12.1z" fill="#6a737c"/><path d="m451.3 825.9c-5.2-6.6-19.7-2.9-32.1-1.4 8.8 2.5 21.3 4.5 25 7.9-1.4-3.6 1-5.7 7.1-6.4z" fill="#6a707c"/><path d="m439.2 855.9c-26.1 8.1-36.5 1.5-50-2.1 6.8 7.2 19.1 15.9 20 21.4 5.4-8.7 19.5-13.1 30-19.3z" fill="#6b747d"/><path d="m198.5 399.5c-72.7 16.9-51.4 27.5-60 35.7-22-22.9 49-33.7 60-35.7z" class="d"/><path d="m361.3 374.5c46.2 2.4 185.4-3 154.3 45.7 10-29.2-56.1-41.1-154.3-45.7z" class="e"/><path d="m161.3 459.5c-42.6 16.8-52.8 28.4-36.4 35.7-9.1-15.9 16.4-25.3 36.4-35.7z" class="e"/><path d="m187.7 571.6c-68 13.5-5.1-37.4 0-36.4-18 19.5-40.9 40.9 0 36.4z" class="e"/><path d="m229.9 601.6c-19.4 6-55.6 27.3-20 27.9-20.6 13.6-39.4-18.6 20-27.9z" class="e"/><path d="m270 658c-16.7 5-47.9 22.5-17.2 22.9-17.7 11.1-33.9-15.2 17.2-22.9z" class="e"/><path d="m302.8 695.1c-15 4.1-42.9 18.7-15.4 19.1-15.9 9.3-30.4-12.7 15.4-19.1z" class="e"/><path d="m302.8 695.1c-15 4.1-42.9 18.7-15.4 19.1-15.9 9.3-30.4-12.7 15.4-19.1z" class="e"/><path d="m366.3 738.1c-19.4 6-55.6 27.3-20 27.9-20.6 13.6-39.4-18.6 20-27.9z" class="e"/><path d="m413.5 779.5c-19.4 6-55.6 27.3-20 27.9-20.6 13.6-39.4-18.6 20-27.9z" class="e"/><path d="m425.5 844.3c-42.6-16.9-58-15.4-51 1.1 4.2-17.8 29.3-7.2 51-1.1z" class="e"/><path d="m409.8 734.9c17.9-9.7 58.4-20.7 33.9 5.1 24.1-5.3 14.2-41.1-33.9-5.1z" class="e"/><path d="m427.8 780.3c17.4-10.5 57.4-23.3 34.1 3.6 23.8-6.3 12.4-41.7-34.1-3.6z" class="e"/><path d="m396.6 676.8c18.2-9.6 57.8-19.6 31 6.8 23.4-4.6 19.4-43.1-31-6.8z" class="e"/><path d="m409.9 637.6c20.8-5.2 65.3-8 33.8 9.4 26.2-0.6 24.6-31.5-33.8-9.4z" class="e"/><path d="m432.7 573.2c26.6-2.6 79.3 2 34.3 17.8 30.5 4 44-34.5-34.3-17.8z" class="e"/><path d="m478.4 553.6c91.4-45.5-23.7-44.5-28.9-38.9 36.8 4.9 81.1 7.7 28.9 38.9z" class="e"/><path d="m455.4 453.9c45.7-3.7 59.9 2.2 48.4 16 1.2-18.3-25.9-15.4-48.4-16z" class="e"/><path d="m400.8 860.5c20.1 3 59.1 18.5 24 24.5 22.4 10.2 36.1-24.4-24-24.5z" class="e"/><path d="m390.5 877.9c-33.3-16.9-45.4-15.4-39.9 1.1 3.3-17.8 22.9-7.2 39.9-1.1z" class="e"/><path d="m373.7 887c20.1 3 59.1 18.5 24 24.5 22.4 10.2 36.1-24.4-24-24.5z" class="e"/><path d="m232.8 562.9c34.6-23 86-33.2 122.2-30.8-34 2.3-82.7 12-122.2 30.8z" class="g"/><path d="m212.6 526.6c38-23 94.5-33.2 134.4-30.8-37.4 2.3-90.9 12-134.3 30.8z" class="g"/><path d="m209.4 479.1c40.2-19 97.4-23.2 136.8-16.7-37.4-1.6-91.6 2.6-136.8 16.7z" class="g"/><path d="m248 616.5c27.4-23 68.2-33.2 97-30.8-27 2.3-65.6 12-97 30.8z" class="g"/><path d="m268.2 661.9c25.1-23 62.5-33.2 88.9-30.8-24.7 2.3-60.1 12-88.9 30.8z" class="g"/></svg>
